<?xml version="1.0" encoding="utf-8"?>
<svg xmlns="http://www.w3.org/2000/svg" xmlns:xlink="http://www.w3.org/1999/xlink" width="600" height="600" viewBox="0 0 2400 2400">
<defs>
  <clipPath id="clip4900">
    <rect x="0" y="0" width="2400" height="2400"/>
  </clipPath>
</defs>
<path clip-path="url(#clip4900)" d="
M0 2400 L2400 2400 L2400 0 L0 0  Z
  " fill="#ffffff" fill-rule="evenodd" fill-opacity="1"/>
<defs>
  <clipPath id="clip4901">
    <rect x="480" y="240" width="1681" height="1681"/>
  </clipPath>
</defs>
<path clip-path="url(#clip4900)" d="
M140.517 2249.53 L2352.76 2249.53 L2352.76 47.2441 L140.517 47.2441  Z
  " fill="#ffffff" fill-rule="evenodd" fill-opacity="1"/>
<defs>
  <clipPath id="clip4902">
    <rect x="140" y="47" width="2213" height="2203"/>
  </clipPath>
</defs>
<polyline clip-path="url(#clip4902)" style="stroke:#000000; stroke-width:2; stroke-opacity:0.1; fill:none" points="
  214.258,2249.53 214.258,47.2441 
  "/>
<polyline clip-path="url(#clip4902)" style="stroke:#000000; stroke-width:2; stroke-opacity:0.1; fill:none" points="
  582.965,2249.53 582.965,47.2441 
  "/>
<polyline clip-path="url(#clip4902)" style="stroke:#000000; stroke-width:2; stroke-opacity:0.1; fill:none" points="
  951.671,2249.53 951.671,47.2441 
  "/>
<polyline clip-path="url(#clip4902)" style="stroke:#000000; stroke-width:2; stroke-opacity:0.1; fill:none" points="
  1320.38,2249.53 1320.38,47.2441 
  "/>
<polyline clip-path="url(#clip4902)" style="stroke:#000000; stroke-width:2; stroke-opacity:0.1; fill:none" points="
  1689.08,2249.53 1689.08,47.2441 
  "/>
<polyline clip-path="url(#clip4902)" style="stroke:#000000; stroke-width:2; stroke-opacity:0.1; fill:none" points="
  2057.79,2249.53 2057.79,47.2441 
  "/>
<polyline clip-path="url(#clip4902)" style="stroke:#000000; stroke-width:2; stroke-opacity:0.1; fill:none" points="
  140.517,1698.96 2352.76,1698.96 
  "/>
<polyline clip-path="url(#clip4902)" style="stroke:#000000; stroke-width:2; stroke-opacity:0.1; fill:none" points="
  140.517,1148.39 2352.76,1148.39 
  "/>
<polyline clip-path="url(#clip4902)" style="stroke:#000000; stroke-width:2; stroke-opacity:0.1; fill:none" points="
  140.517,597.815 2352.76,597.815 
  "/>
<polyline clip-path="url(#clip4902)" style="stroke:#000000; stroke-width:2; stroke-opacity:0.1; fill:none" points="
  140.517,47.2441 2352.76,47.2441 
  "/>
<polyline clip-path="url(#clip4900)" style="stroke:#000000; stroke-width:4; stroke-opacity:1; fill:none" points="
  140.517,2249.53 2352.76,2249.53 
  "/>
<polyline clip-path="url(#clip4900)" style="stroke:#000000; stroke-width:4; stroke-opacity:1; fill:none" points="
  -1260.57,2249.53 -1260.57,47.2441 
  "/>
<polyline clip-path="url(#clip4900)" style="stroke:#000000; stroke-width:4; stroke-opacity:1; fill:none" points="
  214.258,2275.96 214.258,2223.1 
  "/>
<polyline clip-path="url(#clip4900)" style="stroke:#000000; stroke-width:4; stroke-opacity:1; fill:none" points="
  582.965,2275.96 582.965,2223.1 
  "/>
<polyline clip-path="url(#clip4900)" style="stroke:#000000; stroke-width:4; stroke-opacity:1; fill:none" points="
  951.671,2275.96 951.671,2223.1 
  "/>
<polyline clip-path="url(#clip4900)" style="stroke:#000000; stroke-width:4; stroke-opacity:1; fill:none" points="
  1320.38,2275.96 1320.38,2223.1 
  "/>
<polyline clip-path="url(#clip4900)" style="stroke:#000000; stroke-width:4; stroke-opacity:1; fill:none" points="
  1689.08,2275.96 1689.08,2223.1 
  "/>
<polyline clip-path="url(#clip4900)" style="stroke:#000000; stroke-width:4; stroke-opacity:1; fill:none" points="
  2057.79,2275.96 2057.79,2223.1 
  "/>
<polyline clip-path="url(#clip4900)" style="stroke:#000000; stroke-width:4; stroke-opacity:1; fill:none" points="
  -1287.11,1698.96 -1234.02,1698.96 
  "/>
<polyline clip-path="url(#clip4900)" style="stroke:#000000; stroke-width:4; stroke-opacity:1; fill:none" points="
  -1287.11,1148.39 -1234.02,1148.39 
  "/>
<polyline clip-path="url(#clip4900)" style="stroke:#000000; stroke-width:4; stroke-opacity:1; fill:none" points="
  -1287.11,597.815 -1234.02,597.815 
  "/>
<polyline clip-path="url(#clip4900)" style="stroke:#000000; stroke-width:4; stroke-opacity:1; fill:none" points="
  -1287.11,47.2441 -1234.02,47.2441 
  "/>
<g clip-path="url(#clip4900)">
<text style="fill:#000000; fill-opacity:1; font-family:Arial,Helvetica Neue,Helvetica,sans-serif; font-size:48px; text-anchor:middle;" transform="rotate(0, 214.258, 2303.53)" x="214.258" y="2303.53">4</text>
</g>
<g clip-path="url(#clip4900)">
<text style="fill:#000000; fill-opacity:1; font-family:Arial,Helvetica Neue,Helvetica,sans-serif; font-size:48px; text-anchor:middle;" transform="rotate(0, 582.965, 2303.53)" x="582.965" y="2303.53">5</text>
</g>
<g clip-path="url(#clip4900)">
<text style="fill:#000000; fill-opacity:1; font-family:Arial,Helvetica Neue,Helvetica,sans-serif; font-size:48px; text-anchor:middle;" transform="rotate(0, 951.671, 2303.53)" x="951.671" y="2303.53">6</text>
</g>
<g clip-path="url(#clip4900)">
<text style="fill:#000000; fill-opacity:1; font-family:Arial,Helvetica Neue,Helvetica,sans-serif; font-size:48px; text-anchor:middle;" transform="rotate(0, 1320.38, 2303.53)" x="1320.38" y="2303.53">7</text>
</g>
<g clip-path="url(#clip4900)">
<text style="fill:#000000; fill-opacity:1; font-family:Arial,Helvetica Neue,Helvetica,sans-serif; font-size:48px; text-anchor:middle;" transform="rotate(0, 1689.08, 2303.53)" x="1689.08" y="2303.53">8</text>
</g>
<g clip-path="url(#clip4900)">
<text style="fill:#000000; fill-opacity:1; font-family:Arial,Helvetica Neue,Helvetica,sans-serif; font-size:48px; text-anchor:middle;" transform="rotate(0, 2057.79, 2303.53)" x="2057.79" y="2303.53">9</text>
</g>
<g clip-path="url(#clip4900)">
<text style="fill:#000000; fill-opacity:1; font-family:Arial,Helvetica Neue,Helvetica,sans-serif; font-size:48px; text-anchor:end;" transform="rotate(0, -1284.57, 1716.46)" x="-1284.57" y="1716.46">10</text>
</g>
<g clip-path="url(#clip4900)">
<text style="fill:#000000; fill-opacity:1; font-family:Arial,Helvetica Neue,Helvetica,sans-serif; font-size:48px; text-anchor:end;" transform="rotate(0, -1284.57, 1165.89)" x="-1284.57" y="1165.89">20</text>
</g>
<g clip-path="url(#clip4900)">
<text style="fill:#000000; fill-opacity:1; font-family:Arial,Helvetica Neue,Helvetica,sans-serif; font-size:48px; text-anchor:end;" transform="rotate(0, -1284.57, 615.315)" x="-1284.57" y="615.315">30</text>
</g>
<g clip-path="url(#clip4900)">
<text style="fill:#000000; fill-opacity:1; font-family:Arial,Helvetica Neue,Helvetica,sans-serif; font-size:48px; text-anchor:end;" transform="rotate(0, -1284.57, 64.7441)" x="-1284.57" y="64.7441">40</text>
</g>
<g clip-path="url(#clip4900)">
<text style="fill:#000000; fill-opacity:1; font-family:Arial,Helvetica Neue,Helvetica,sans-serif; font-size:66px; text-anchor:middle;" transform="rotate(0, 1246.64, 2383.39)" x="1246.64" y="2383.39">Avogadro constant</text>
</g>
<polyline clip-path="url(#clip4902)" style="stroke:#c32047; stroke-width:4; stroke-opacity:1; fill:none" points="
  959.835,2249.53 959.835,47.2441 
  "/>
<circle clip-path="url(#clip4902)" style="fill:#000000; stroke:none; fill-opacity:1" cx="1320.38" cy="267.473" r="7"/>
<circle clip-path="url(#clip4902)" style="fill:#000000; stroke:none; fill-opacity:1" cx="1320.38" cy="267.473" r="3"/>
<circle clip-path="url(#clip4902)" style="fill:#000000; stroke:none; fill-opacity:1" cx="981.168" cy="322.53" r="7"/>
<circle clip-path="url(#clip4902)" style="fill:#000000; stroke:none; fill-opacity:1" cx="981.168" cy="322.53" r="3"/>
<circle clip-path="url(#clip4902)" style="fill:#000000; stroke:none; fill-opacity:1" cx="1010.66" cy="377.587" r="7"/>
<circle clip-path="url(#clip4902)" style="fill:#000000; stroke:none; fill-opacity:1" cx="1010.66" cy="377.587" r="3"/>
<circle clip-path="url(#clip4902)" style="fill:#000000; stroke:none; fill-opacity:1" cx="2168.4" cy="432.644" r="7"/>
<circle clip-path="url(#clip4902)" style="fill:#000000; stroke:none; fill-opacity:1" cx="2168.4" cy="432.644" r="3"/>
<circle clip-path="url(#clip4902)" style="fill:#000000; stroke:none; fill-opacity:1" cx="1947.18" cy="487.701" r="7"/>
<circle clip-path="url(#clip4902)" style="fill:#000000; stroke:none; fill-opacity:1" cx="1947.18" cy="487.701" r="3"/>
<circle clip-path="url(#clip4902)" style="fill:#000000; stroke:none; fill-opacity:1" cx="951.671" cy="542.758" r="7"/>
<circle clip-path="url(#clip4902)" style="fill:#000000; stroke:none; fill-opacity:1" cx="951.671" cy="542.758" r="3"/>
<circle clip-path="url(#clip4902)" style="fill:#000000; stroke:none; fill-opacity:1" cx="1209.77" cy="597.815" r="7"/>
<circle clip-path="url(#clip4902)" style="fill:#000000; stroke:none; fill-opacity:1" cx="1209.77" cy="597.815" r="3"/>
<circle clip-path="url(#clip4902)" style="fill:#000000; stroke:none; fill-opacity:1" cx="1010.66" cy="652.872" r="7"/>
<circle clip-path="url(#clip4902)" style="fill:#000000; stroke:none; fill-opacity:1" cx="1010.66" cy="652.872" r="3"/>
<circle clip-path="url(#clip4902)" style="fill:#000000; stroke:none; fill-opacity:1" cx="951.671" cy="707.93" r="7"/>
<circle clip-path="url(#clip4902)" style="fill:#000000; stroke:none; fill-opacity:1" cx="951.671" cy="707.93" r="3"/>
<circle clip-path="url(#clip4902)" style="fill:#000000; stroke:none; fill-opacity:1" cx="918.488" cy="762.987" r="7"/>
<circle clip-path="url(#clip4902)" style="fill:#000000; stroke:none; fill-opacity:1" cx="918.488" cy="762.987" r="3"/>
<circle clip-path="url(#clip4902)" style="fill:#000000; stroke:none; fill-opacity:1" cx="973.794" cy="818.044" r="7"/>
<circle clip-path="url(#clip4902)" style="fill:#000000; stroke:none; fill-opacity:1" cx="973.794" cy="818.044" r="3"/>
<circle clip-path="url(#clip4902)" style="fill:#000000; stroke:none; fill-opacity:1" cx="975.268" cy="873.101" r="7"/>
<circle clip-path="url(#clip4902)" style="fill:#000000; stroke:none; fill-opacity:1" cx="975.268" cy="873.101" r="3"/>
<circle clip-path="url(#clip4902)" style="fill:#000000; stroke:none; fill-opacity:1" cx="914.8" cy="928.158" r="7"/>
<circle clip-path="url(#clip4902)" style="fill:#000000; stroke:none; fill-opacity:1" cx="914.8" cy="928.158" r="3"/>
<circle clip-path="url(#clip4902)" style="fill:#000000; stroke:none; fill-opacity:1" cx="953.146" cy="983.215" r="7"/>
<circle clip-path="url(#clip4902)" style="fill:#000000; stroke:none; fill-opacity:1" cx="953.146" cy="983.215" r="3"/>
<circle clip-path="url(#clip4902)" style="fill:#000000; stroke:none; fill-opacity:1" cx="975.416" cy="1038.27" r="7"/>
<circle clip-path="url(#clip4902)" style="fill:#000000; stroke:none; fill-opacity:1" cx="975.416" cy="1038.27" r="3"/>
<circle clip-path="url(#clip4902)" style="fill:#000000; stroke:none; fill-opacity:1" cx="958.677" cy="1093.33" r="7"/>
<circle clip-path="url(#clip4902)" style="fill:#000000; stroke:none; fill-opacity:1" cx="958.677" cy="1093.33" r="3"/>
<circle clip-path="url(#clip4902)" style="fill:#000000; stroke:none; fill-opacity:1" cx="960.089" cy="1148.39" r="7"/>
<circle clip-path="url(#clip4902)" style="fill:#000000; stroke:none; fill-opacity:1" cx="960.089" cy="1148.39" r="3"/>
<circle clip-path="url(#clip4902)" style="fill:#000000; stroke:none; fill-opacity:1" cx="960.292" cy="1203.44" r="7"/>
<circle clip-path="url(#clip4902)" style="fill:#000000; stroke:none; fill-opacity:1" cx="960.292" cy="1203.44" r="3"/>
<circle clip-path="url(#clip4902)" style="fill:#000000; stroke:none; fill-opacity:1" cx="960.225" cy="1258.5" r="7"/>
<circle clip-path="url(#clip4902)" style="fill:#000000; stroke:none; fill-opacity:1" cx="960.225" cy="1258.5" r="3"/>
<circle clip-path="url(#clip4902)" style="fill:#000000; stroke:none; fill-opacity:1" cx="960.531" cy="1313.56" r="7"/>
<circle clip-path="url(#clip4902)" style="fill:#000000; stroke:none; fill-opacity:1" cx="960.531" cy="1313.56" r="3"/>
<circle clip-path="url(#clip4902)" style="fill:#000000; stroke:none; fill-opacity:1" cx="961.051" cy="1368.61" r="7"/>
<circle clip-path="url(#clip4902)" style="fill:#000000; stroke:none; fill-opacity:1" cx="961.051" cy="1368.61" r="3"/>
<circle clip-path="url(#clip4902)" style="fill:#000000; stroke:none; fill-opacity:1" cx="959.815" cy="1423.67" r="7"/>
<circle clip-path="url(#clip4902)" style="fill:#000000; stroke:none; fill-opacity:1" cx="959.815" cy="1423.67" r="3"/>
<circle clip-path="url(#clip4902)" style="fill:#000000; stroke:none; fill-opacity:1" cx="959.974" cy="1478.73" r="7"/>
<circle clip-path="url(#clip4902)" style="fill:#000000; stroke:none; fill-opacity:1" cx="959.974" cy="1478.73" r="3"/>
<circle clip-path="url(#clip4902)" style="fill:#000000; stroke:none; fill-opacity:1" cx="959.799" cy="1533.79" r="7"/>
<circle clip-path="url(#clip4902)" style="fill:#000000; stroke:none; fill-opacity:1" cx="959.799" cy="1533.79" r="3"/>
<circle clip-path="url(#clip4902)" style="fill:#000000; stroke:none; fill-opacity:1" cx="959.817" cy="1588.84" r="7"/>
<circle clip-path="url(#clip4902)" style="fill:#000000; stroke:none; fill-opacity:1" cx="959.817" cy="1588.84" r="3"/>
<circle clip-path="url(#clip4902)" style="fill:#000000; stroke:none; fill-opacity:1" cx="959.832" cy="1643.9" r="7"/>
<circle clip-path="url(#clip4902)" style="fill:#000000; stroke:none; fill-opacity:1" cx="959.832" cy="1643.9" r="3"/>
<circle clip-path="url(#clip4902)" style="fill:#000000; stroke:none; fill-opacity:1" cx="959.833" cy="1698.96" r="7"/>
<circle clip-path="url(#clip4902)" style="fill:#000000; stroke:none; fill-opacity:1" cx="959.833" cy="1698.96" r="3"/>
<circle clip-path="url(#clip4902)" style="fill:#000000; stroke:none; fill-opacity:1" cx="959.833" cy="1754.01" r="7"/>
<circle clip-path="url(#clip4902)" style="fill:#000000; stroke:none; fill-opacity:1" cx="959.833" cy="1754.01" r="3"/>
<circle clip-path="url(#clip4902)" style="fill:#000000; stroke:none; fill-opacity:1" cx="959.834" cy="1809.07" r="7"/>
<circle clip-path="url(#clip4902)" style="fill:#000000; stroke:none; fill-opacity:1" cx="959.834" cy="1809.07" r="3"/>
<circle clip-path="url(#clip4902)" style="fill:#000000; stroke:none; fill-opacity:1" cx="959.833" cy="1864.13" r="7"/>
<circle clip-path="url(#clip4902)" style="fill:#000000; stroke:none; fill-opacity:1" cx="959.833" cy="1864.13" r="3"/>
<circle clip-path="url(#clip4902)" style="fill:#000000; stroke:none; fill-opacity:1" cx="959.84" cy="1919.19" r="7"/>
<circle clip-path="url(#clip4902)" style="fill:#000000; stroke:none; fill-opacity:1" cx="959.84" cy="1919.19" r="3"/>
<circle clip-path="url(#clip4902)" style="fill:#000000; stroke:none; fill-opacity:1" cx="959.832" cy="1974.24" r="7"/>
<circle clip-path="url(#clip4902)" style="fill:#000000; stroke:none; fill-opacity:1" cx="959.832" cy="1974.24" r="3"/>
<polyline clip-path="url(#clip4902)" style="stroke:#000000; stroke-width:4; stroke-opacity:1; fill:none" points="
  -1260.57,157.358 51833.2,157.358 
  "/>
<polyline clip-path="url(#clip4902)" style="stroke:#000000; stroke-width:4; stroke-opacity:1; fill:none" points="
  767.318,212.415 4823.09,212.415 
  "/>
<polyline clip-path="url(#clip4902)" style="stroke:#000000; stroke-width:4; stroke-opacity:1; fill:none" points="
  -1260.57,267.473 3901.32,267.473 
  "/>
<polyline clip-path="url(#clip4902)" style="stroke:#000000; stroke-width:4; stroke-opacity:1; fill:none" points="
  958.75,322.53 1003.59,322.53 
  "/>
<polyline clip-path="url(#clip4902)" style="stroke:#000000; stroke-width:4; stroke-opacity:1; fill:none" points="
  987.952,377.587 1033.38,377.587 
  "/>
<polyline clip-path="url(#clip4902)" style="stroke:#000000; stroke-width:4; stroke-opacity:1; fill:none" points="
  -1260.57,432.644 5597.37,432.644 
  "/>
<polyline clip-path="url(#clip4902)" style="stroke:#000000; stroke-width:4; stroke-opacity:1; fill:none" points="
  -1260.57,487.701 5154.93,487.701 
  "/>
<polyline clip-path="url(#clip4902)" style="stroke:#000000; stroke-width:4; stroke-opacity:1; fill:none" points="
  -1260.57,542.758 3163.91,542.758 
  "/>
<polyline clip-path="url(#clip4902)" style="stroke:#000000; stroke-width:4; stroke-opacity:1; fill:none" points="
  468.666,597.815 1950.87,597.815 
  "/>
<polyline clip-path="url(#clip4902)" style="stroke:#000000; stroke-width:4; stroke-opacity:1; fill:none" points="
  874.39,652.872 1146.94,652.872 
  "/>
<polyline clip-path="url(#clip4902)" style="stroke:#000000; stroke-width:4; stroke-opacity:1; fill:none" points="
  509.223,707.93 1394.12,707.93 
  "/>
<polyline clip-path="url(#clip4902)" style="stroke:#000000; stroke-width:4; stroke-opacity:1; fill:none" points="
  896.697,762.987 940.278,762.987 
  "/>
<polyline clip-path="url(#clip4902)" style="stroke:#000000; stroke-width:4; stroke-opacity:1; fill:none" points="
  526.921,818.044 1420.67,818.044 
  "/>
<polyline clip-path="url(#clip4902)" style="stroke:#000000; stroke-width:4; stroke-opacity:1; fill:none" points="
  961.853,873.101 988.683,873.101 
  "/>
<polyline clip-path="url(#clip4902)" style="stroke:#000000; stroke-width:4; stroke-opacity:1; fill:none" points="
  914.8,928.158 914.8,928.158 
  "/>
<polyline clip-path="url(#clip4902)" style="stroke:#000000; stroke-width:4; stroke-opacity:1; fill:none" points="
  935.436,983.215 970.856,983.215 
  "/>
<polyline clip-path="url(#clip4902)" style="stroke:#000000; stroke-width:4; stroke-opacity:1; fill:none" points="
  962,1038.27 988.832,1038.27 
  "/>
<polyline clip-path="url(#clip4902)" style="stroke:#000000; stroke-width:4; stroke-opacity:1; fill:none" points="
  952.019,1093.33 965.334,1093.33 
  "/>
<polyline clip-path="url(#clip4902)" style="stroke:#000000; stroke-width:4; stroke-opacity:1; fill:none" points="
  959.867,1148.39 960.311,1148.39 
  "/>
<polyline clip-path="url(#clip4902)" style="stroke:#000000; stroke-width:4; stroke-opacity:1; fill:none" points="
  959.847,1203.44 960.736,1203.44 
  "/>
<polyline clip-path="url(#clip4902)" style="stroke:#000000; stroke-width:4; stroke-opacity:1; fill:none" points="
  960.003,1258.5 960.447,1258.5 
  "/>
<polyline clip-path="url(#clip4902)" style="stroke:#000000; stroke-width:4; stroke-opacity:1; fill:none" points="
  959.865,1313.56 961.197,1313.56 
  "/>
<polyline clip-path="url(#clip4902)" style="stroke:#000000; stroke-width:4; stroke-opacity:1; fill:none" points="
  960.829,1368.61 961.273,1368.61 
  "/>
<polyline clip-path="url(#clip4902)" style="stroke:#000000; stroke-width:4; stroke-opacity:1; fill:none" points="
  959.771,1423.67 959.86,1423.67 
  "/>
<polyline clip-path="url(#clip4902)" style="stroke:#000000; stroke-width:4; stroke-opacity:1; fill:none" points="
  959.775,1478.73 960.174,1478.73 
  "/>
<polyline clip-path="url(#clip4902)" style="stroke:#000000; stroke-width:4; stroke-opacity:1; fill:none" points="
  959.733,1533.79 959.866,1533.79 
  "/>
<polyline clip-path="url(#clip4902)" style="stroke:#000000; stroke-width:4; stroke-opacity:1; fill:none" points="
  959.815,1588.84 959.82,1588.84 
  "/>
<polyline clip-path="url(#clip4902)" style="stroke:#000000; stroke-width:4; stroke-opacity:1; fill:none" points="
  959.83,1643.9 959.834,1643.9 
  "/>
<polyline clip-path="url(#clip4902)" style="stroke:#000000; stroke-width:4; stroke-opacity:1; fill:none" points="
  959.832,1698.96 959.834,1698.96 
  "/>
<polyline clip-path="url(#clip4902)" style="stroke:#000000; stroke-width:4; stroke-opacity:1; fill:none" points="
  959.831,1754.01 959.835,1754.01 
  "/>
<polyline clip-path="url(#clip4902)" style="stroke:#000000; stroke-width:4; stroke-opacity:1; fill:none" points="
  959.833,1809.07 959.834,1809.07 
  "/>
<polyline clip-path="url(#clip4902)" style="stroke:#000000; stroke-width:4; stroke-opacity:1; fill:none" points="
  959.832,1864.13 959.834,1864.13 
  "/>
<polyline clip-path="url(#clip4902)" style="stroke:#000000; stroke-width:4; stroke-opacity:1; fill:none" points="
  959.839,1919.19 959.841,1919.19 
  "/>
<polyline clip-path="url(#clip4902)" style="stroke:#000000; stroke-width:4; stroke-opacity:1; fill:none" points="
  959.831,1974.24 959.833,1974.24 
  "/>
<line clip-path="url(#clip4902)" x1="767.318" y1="204.415" x2="767.318" y2="220.415" style="stroke:#000000; stroke-width:4; stroke-opacity:1"/>
<line clip-path="url(#clip4902)" x1="958.75" y1="314.53" x2="958.75" y2="330.53" style="stroke:#000000; stroke-width:4; stroke-opacity:1"/>
<line clip-path="url(#clip4902)" x1="1003.59" y1="314.53" x2="1003.59" y2="330.53" style="stroke:#000000; stroke-width:4; stroke-opacity:1"/>
<line clip-path="url(#clip4902)" x1="987.952" y1="369.587" x2="987.952" y2="385.587" style="stroke:#000000; stroke-width:4; stroke-opacity:1"/>
<line clip-path="url(#clip4902)" x1="1033.38" y1="369.587" x2="1033.38" y2="385.587" style="stroke:#000000; stroke-width:4; stroke-opacity:1"/>
<line clip-path="url(#clip4902)" x1="468.666" y1="589.815" x2="468.666" y2="605.815" style="stroke:#000000; stroke-width:4; stroke-opacity:1"/>
<line clip-path="url(#clip4902)" x1="1950.87" y1="589.815" x2="1950.87" y2="605.815" style="stroke:#000000; stroke-width:4; stroke-opacity:1"/>
<line clip-path="url(#clip4902)" x1="874.39" y1="644.872" x2="874.39" y2="660.872" style="stroke:#000000; stroke-width:4; stroke-opacity:1"/>
<line clip-path="url(#clip4902)" x1="1146.94" y1="644.872" x2="1146.94" y2="660.872" style="stroke:#000000; stroke-width:4; stroke-opacity:1"/>
<line clip-path="url(#clip4902)" x1="509.223" y1="699.93" x2="509.223" y2="715.93" style="stroke:#000000; stroke-width:4; stroke-opacity:1"/>
<line clip-path="url(#clip4902)" x1="1394.12" y1="699.93" x2="1394.12" y2="715.93" style="stroke:#000000; stroke-width:4; stroke-opacity:1"/>
<line clip-path="url(#clip4902)" x1="896.697" y1="754.987" x2="896.697" y2="770.987" style="stroke:#000000; stroke-width:4; stroke-opacity:1"/>
<line clip-path="url(#clip4902)" x1="940.278" y1="754.987" x2="940.278" y2="770.987" style="stroke:#000000; stroke-width:4; stroke-opacity:1"/>
<line clip-path="url(#clip4902)" x1="526.921" y1="810.044" x2="526.921" y2="826.044" style="stroke:#000000; stroke-width:4; stroke-opacity:1"/>
<line clip-path="url(#clip4902)" x1="1420.67" y1="810.044" x2="1420.67" y2="826.044" style="stroke:#000000; stroke-width:4; stroke-opacity:1"/>
<line clip-path="url(#clip4902)" x1="961.853" y1="865.101" x2="961.853" y2="881.101" style="stroke:#000000; stroke-width:4; stroke-opacity:1"/>
<line clip-path="url(#clip4902)" x1="988.683" y1="865.101" x2="988.683" y2="881.101" style="stroke:#000000; stroke-width:4; stroke-opacity:1"/>
<line clip-path="url(#clip4902)" x1="914.8" y1="920.158" x2="914.8" y2="936.158" style="stroke:#000000; stroke-width:4; stroke-opacity:1"/>
<line clip-path="url(#clip4902)" x1="914.8" y1="920.158" x2="914.8" y2="936.158" style="stroke:#000000; stroke-width:4; stroke-opacity:1"/>
<line clip-path="url(#clip4902)" x1="935.436" y1="975.215" x2="935.436" y2="991.215" style="stroke:#000000; stroke-width:4; stroke-opacity:1"/>
<line clip-path="url(#clip4902)" x1="970.856" y1="975.215" x2="970.856" y2="991.215" style="stroke:#000000; stroke-width:4; stroke-opacity:1"/>
<line clip-path="url(#clip4902)" x1="962" y1="1030.27" x2="962" y2="1046.27" style="stroke:#000000; stroke-width:4; stroke-opacity:1"/>
<line clip-path="url(#clip4902)" x1="988.832" y1="1030.27" x2="988.832" y2="1046.27" style="stroke:#000000; stroke-width:4; stroke-opacity:1"/>
<line clip-path="url(#clip4902)" x1="952.019" y1="1085.33" x2="952.019" y2="1101.33" style="stroke:#000000; stroke-width:4; stroke-opacity:1"/>
<line clip-path="url(#clip4902)" x1="965.334" y1="1085.33" x2="965.334" y2="1101.33" style="stroke:#000000; stroke-width:4; stroke-opacity:1"/>
<line clip-path="url(#clip4902)" x1="959.867" y1="1140.39" x2="959.867" y2="1156.39" style="stroke:#000000; stroke-width:4; stroke-opacity:1"/>
<line clip-path="url(#clip4902)" x1="960.311" y1="1140.39" x2="960.311" y2="1156.39" style="stroke:#000000; stroke-width:4; stroke-opacity:1"/>
<line clip-path="url(#clip4902)" x1="959.847" y1="1195.44" x2="959.847" y2="1211.44" style="stroke:#000000; stroke-width:4; stroke-opacity:1"/>
<line clip-path="url(#clip4902)" x1="960.736" y1="1195.44" x2="960.736" y2="1211.44" style="stroke:#000000; stroke-width:4; stroke-opacity:1"/>
<line clip-path="url(#clip4902)" x1="960.003" y1="1250.5" x2="960.003" y2="1266.5" style="stroke:#000000; stroke-width:4; stroke-opacity:1"/>
<line clip-path="url(#clip4902)" x1="960.447" y1="1250.5" x2="960.447" y2="1266.5" style="stroke:#000000; stroke-width:4; stroke-opacity:1"/>
<line clip-path="url(#clip4902)" x1="959.865" y1="1305.56" x2="959.865" y2="1321.56" style="stroke:#000000; stroke-width:4; stroke-opacity:1"/>
<line clip-path="url(#clip4902)" x1="961.197" y1="1305.56" x2="961.197" y2="1321.56" style="stroke:#000000; stroke-width:4; stroke-opacity:1"/>
<line clip-path="url(#clip4902)" x1="960.829" y1="1360.61" x2="960.829" y2="1376.61" style="stroke:#000000; stroke-width:4; stroke-opacity:1"/>
<line clip-path="url(#clip4902)" x1="961.273" y1="1360.61" x2="961.273" y2="1376.61" style="stroke:#000000; stroke-width:4; stroke-opacity:1"/>
<line clip-path="url(#clip4902)" x1="959.771" y1="1415.67" x2="959.771" y2="1431.67" style="stroke:#000000; stroke-width:4; stroke-opacity:1"/>
<line clip-path="url(#clip4902)" x1="959.86" y1="1415.67" x2="959.86" y2="1431.67" style="stroke:#000000; stroke-width:4; stroke-opacity:1"/>
<line clip-path="url(#clip4902)" x1="959.775" y1="1470.73" x2="959.775" y2="1486.73" style="stroke:#000000; stroke-width:4; stroke-opacity:1"/>
<line clip-path="url(#clip4902)" x1="960.174" y1="1470.73" x2="960.174" y2="1486.73" style="stroke:#000000; stroke-width:4; stroke-opacity:1"/>
<line clip-path="url(#clip4902)" x1="959.733" y1="1525.79" x2="959.733" y2="1541.79" style="stroke:#000000; stroke-width:4; stroke-opacity:1"/>
<line clip-path="url(#clip4902)" x1="959.866" y1="1525.79" x2="959.866" y2="1541.79" style="stroke:#000000; stroke-width:4; stroke-opacity:1"/>
<line clip-path="url(#clip4902)" x1="959.815" y1="1580.84" x2="959.815" y2="1596.84" style="stroke:#000000; stroke-width:4; stroke-opacity:1"/>
<line clip-path="url(#clip4902)" x1="959.82" y1="1580.84" x2="959.82" y2="1596.84" style="stroke:#000000; stroke-width:4; stroke-opacity:1"/>
<line clip-path="url(#clip4902)" x1="959.83" y1="1635.9" x2="959.83" y2="1651.9" style="stroke:#000000; stroke-width:4; stroke-opacity:1"/>
<line clip-path="url(#clip4902)" x1="959.834" y1="1635.9" x2="959.834" y2="1651.9" style="stroke:#000000; stroke-width:4; stroke-opacity:1"/>
<line clip-path="url(#clip4902)" x1="959.832" y1="1690.96" x2="959.832" y2="1706.96" style="stroke:#000000; stroke-width:4; stroke-opacity:1"/>
<line clip-path="url(#clip4902)" x1="959.834" y1="1690.96" x2="959.834" y2="1706.96" style="stroke:#000000; stroke-width:4; stroke-opacity:1"/>
<line clip-path="url(#clip4902)" x1="959.831" y1="1746.01" x2="959.831" y2="1762.01" style="stroke:#000000; stroke-width:4; stroke-opacity:1"/>
<line clip-path="url(#clip4902)" x1="959.835" y1="1746.01" x2="959.835" y2="1762.01" style="stroke:#000000; stroke-width:4; stroke-opacity:1"/>
<line clip-path="url(#clip4902)" x1="959.833" y1="1801.07" x2="959.833" y2="1817.07" style="stroke:#000000; stroke-width:4; stroke-opacity:1"/>
<line clip-path="url(#clip4902)" x1="959.834" y1="1801.07" x2="959.834" y2="1817.07" style="stroke:#000000; stroke-width:4; stroke-opacity:1"/>
<line clip-path="url(#clip4902)" x1="959.832" y1="1856.13" x2="959.832" y2="1872.13" style="stroke:#000000; stroke-width:4; stroke-opacity:1"/>
<line clip-path="url(#clip4902)" x1="959.834" y1="1856.13" x2="959.834" y2="1872.13" style="stroke:#000000; stroke-width:4; stroke-opacity:1"/>
<line clip-path="url(#clip4902)" x1="959.839" y1="1911.19" x2="959.839" y2="1927.19" style="stroke:#000000; stroke-width:4; stroke-opacity:1"/>
<line clip-path="url(#clip4902)" x1="959.841" y1="1911.19" x2="959.841" y2="1927.19" style="stroke:#000000; stroke-width:4; stroke-opacity:1"/>
<line clip-path="url(#clip4902)" x1="959.831" y1="1966.24" x2="959.831" y2="1982.24" style="stroke:#000000; stroke-width:4; stroke-opacity:1"/>
<line clip-path="url(#clip4902)" x1="959.833" y1="1966.24" x2="959.833" y2="1982.24" style="stroke:#000000; stroke-width:4; stroke-opacity:1"/>
<circle clip-path="url(#clip4902)" style="fill:#00c896; stroke:none; fill-opacity:1" cx="1209.77" cy="597.815" r="14"/>
<circle clip-path="url(#clip4902)" style="fill:#00c896; stroke:none; fill-opacity:1" cx="1209.77" cy="597.815" r="7"/>
<polyline clip-path="url(#clip4902)" style="stroke:#00c896; stroke-width:8; stroke-opacity:1; fill:none" points="
  468.666,597.815 1950.87,597.815 
  "/>
<line clip-path="url(#clip4902)" x1="468.666" y1="581.815" x2="468.666" y2="613.815" style="stroke:#00c896; stroke-width:4; stroke-opacity:1"/>
<line clip-path="url(#clip4902)" x1="1950.87" y1="581.815" x2="1950.87" y2="613.815" style="stroke:#00c896; stroke-width:4; stroke-opacity:1"/>
<polyline clip-path="url(#clip4902)" style="stroke:#000000; stroke-width:4; stroke-opacity:0.3; fill:none" points="
  959.835,1010.74 1144.19,1010.74 1328.54,1010.74 1512.89,1010.74 1697.25,1010.74 1881.6,1010.74 2065.95,1010.74 2250.31,1010.74 2434.66,1010.74 
  "/>
<polyline clip-path="url(#clip4902)" style="stroke:#000000; stroke-width:4; stroke-opacity:0.3; fill:none" points="
  959.835,1396.14 1144.19,1396.14 1328.54,1396.14 1512.89,1396.14 1697.25,1396.14 1881.6,1396.14 2065.95,1396.14 2250.31,1396.14 2434.66,1396.14 
  "/>
<g clip-path="url(#clip4900)">
<text style="fill:#000000; fill-opacity:1; font-family:Arial,Helvetica Neue,Helvetica,sans-serif; font-size:48px; text-anchor:start;" transform="rotate(0, 1657.9, 801.455)" x="1657.9" y="801.455">atomic or molecular movement</text>
</g>
<g clip-path="url(#clip4900)">
<text style="fill:#000000; fill-opacity:1; font-family:Arial,Helvetica Neue,Helvetica,sans-serif; font-size:48px; text-anchor:start;" transform="rotate(0, 1941.36, 861.935)" x="1941.36" y="861.935"> in gases or fluids</text>
</g>
<g clip-path="url(#clip4900)">
<text style="fill:#000000; fill-opacity:1; font-family:Arial,Helvetica Neue,Helvetica,sans-serif; font-size:48px; text-anchor:end;" transform="rotate(0, 2315.89, 1220.94)" x="2315.89" y="1220.94">x-ray wavelengths</text>
</g>
<g clip-path="url(#clip4900)">
<text style="fill:#000000; fill-opacity:1; font-family:Arial,Helvetica Neue,Helvetica,sans-serif; font-size:48px; text-anchor:end;" transform="rotate(0, 2315.89, 1606.34)" x="2315.89" y="1606.34">XRCD</text>
</g>
<g clip-path="url(#clip4900)">
<text style="fill:#000000; fill-opacity:1; font-family:Arial,Helvetica Neue,Helvetica,sans-serif; font-size:59px; text-anchor:start;" transform="rotate(0, 978.27, 2133.39)" x="978.27" y="2133.39">CODATA 2018</text>
</g>
<g clip-path="url(#clip4900)">
<text style="fill:#000000; fill-opacity:1; font-family:Arial,Helvetica Neue,Helvetica,sans-serif; font-size:41px; text-anchor:end;" transform="rotate(0, -1279, 172.358)" x="-1279" y="172.358">Loschmidt(1865)</text>
</g>
<g clip-path="url(#clip4900)">
<text style="fill:#000000; fill-opacity:1; font-family:Arial,Helvetica Neue,Helvetica,sans-serif; font-size:41px; text-anchor:end;" transform="rotate(0, 748.883, 227.415)" x="748.883" y="227.415">van der Waals(1873)</text>
</g>
<g clip-path="url(#clip4900)">
<text style="fill:#000000; fill-opacity:1; font-family:Arial,Helvetica Neue,Helvetica,sans-serif; font-size:41px; text-anchor:end;" transform="rotate(0, 1301.94, 252.191)" x="1301.94" y="252.191">Rontgen(1890)</text>
</g>
<g clip-path="url(#clip4900)">
<text style="fill:#000000; fill-opacity:1; font-family:Arial,Helvetica Neue,Helvetica,sans-serif; font-size:41px; text-anchor:start;" transform="rotate(0, 1022.02, 337.53)" x="1022.02" y="337.53">Rayleigh(1890)</text>
</g>
<g clip-path="url(#clip4900)">
<text style="fill:#000000; fill-opacity:1; font-family:Arial,Helvetica Neue,Helvetica,sans-serif; font-size:41px; text-anchor:start;" transform="rotate(0, 1051.81, 392.587)" x="1051.81" y="392.587">Planck(1901)</text>
</g>
<g clip-path="url(#clip4900)">
<text style="fill:#000000; fill-opacity:1; font-family:Arial,Helvetica Neue,Helvetica,sans-serif; font-size:41px; text-anchor:end;" transform="rotate(0, 2149.97, 417.363)" x="2149.97" y="417.363">Wilson(1903)</text>
</g>
<g clip-path="url(#clip4900)">
<text style="fill:#000000; fill-opacity:1; font-family:Arial,Helvetica Neue,Helvetica,sans-serif; font-size:41px; text-anchor:end;" transform="rotate(0, 1928.74, 472.42)" x="1928.74" y="472.42">Thomson(1904)</text>
</g>
<g clip-path="url(#clip4900)">
<text style="fill:#000000; fill-opacity:1; font-family:Arial,Helvetica Neue,Helvetica,sans-serif; font-size:41px; text-anchor:end;" transform="rotate(0, 933.236, 527.477)" x="933.236" y="527.477">Einstein(1908)</text>
</g>
<g clip-path="url(#clip4900)">
<text style="fill:#000000; fill-opacity:1; font-family:Arial,Helvetica Neue,Helvetica,sans-serif; font-size:41px; text-anchor:start;" transform="rotate(0, 1969.3, 612.815)" x="1969.3" y="612.815">Perrin(1908)</text>
</g>
<g clip-path="url(#clip4900)">
<text style="fill:#000000; fill-opacity:1; font-family:Arial,Helvetica Neue,Helvetica,sans-serif; font-size:41px; text-anchor:start;" transform="rotate(0, 1165.37, 667.872)" x="1165.37" y="667.872">Rutherford(1909)</text>
</g>
<g clip-path="url(#clip4900)">
<text style="fill:#000000; fill-opacity:1; font-family:Arial,Helvetica Neue,Helvetica,sans-serif; font-size:41px; text-anchor:end;" transform="rotate(0, 490.788, 722.93)" x="490.788" y="722.93">Fletcher(1914)</text>
</g>
<g clip-path="url(#clip4900)">
<text style="fill:#000000; fill-opacity:1; font-family:Arial,Helvetica Neue,Helvetica,sans-serif; font-size:41px; text-anchor:end;" transform="rotate(0, 878.262, 777.987)" x="878.262" y="777.987">Nordlund(1914)</text>
</g>
<g clip-path="url(#clip4900)">
<text style="fill:#000000; fill-opacity:1; font-family:Arial,Helvetica Neue,Helvetica,sans-serif; font-size:41px; text-anchor:end;" transform="rotate(0, 508.486, 833.044)" x="508.486" y="833.044">Westgreen(1915)</text>
</g>
<g clip-path="url(#clip4900)">
<text style="fill:#000000; fill-opacity:1; font-family:Arial,Helvetica Neue,Helvetica,sans-serif; font-size:41px; text-anchor:start;" transform="rotate(0, 1007.12, 888.101)" x="1007.12" y="888.101">Millikan(1917)</text>
</g>
<g clip-path="url(#clip4900)">
<text style="fill:#000000; fill-opacity:1; font-family:Arial,Helvetica Neue,Helvetica,sans-serif; font-size:41px; text-anchor:end;" transform="rotate(0, 896.365, 943.158)" x="896.365" y="943.158">Shaxby(1923)</text>
</g>
<g clip-path="url(#clip4900)">
<text style="fill:#000000; fill-opacity:1; font-family:Arial,Helvetica Neue,Helvetica,sans-serif; font-size:41px; text-anchor:end;" transform="rotate(0, 917.001, 998.215)" x="917.001" y="998.215">du Nouy(1924)</text>
</g>
<g clip-path="url(#clip4900)">
<text style="fill:#000000; fill-opacity:1; font-family:Arial,Helvetica Neue,Helvetica,sans-serif; font-size:41px; text-anchor:start;" transform="rotate(0, 1007.27, 1053.27)" x="1007.27" y="1053.27">Birge(1929)</text>
</g>
<g clip-path="url(#clip4900)">
<text style="fill:#000000; fill-opacity:1; font-family:Arial,Helvetica Neue,Helvetica,sans-serif; font-size:41px; text-anchor:end;" transform="rotate(0, 933.584, 1108.33)" x="933.584" y="1108.33">Bearden(1931)</text>
</g>
<g clip-path="url(#clip4900)">
<text style="fill:#000000; fill-opacity:1; font-family:Arial,Helvetica Neue,Helvetica,sans-serif; font-size:41px; text-anchor:end;" transform="rotate(0, 941.431, 1163.39)" x="941.431" y="1163.39">Birge(1941)</text>
</g>
<g clip-path="url(#clip4900)">
<text style="fill:#000000; fill-opacity:1; font-family:Arial,Helvetica Neue,Helvetica,sans-serif; font-size:41px; text-anchor:end;" transform="rotate(0, 941.412, 1218.44)" x="941.412" y="1218.44">Birge(1945)</text>
</g>
<g clip-path="url(#clip4900)">
<text style="fill:#000000; fill-opacity:1; font-family:Arial,Helvetica Neue,Helvetica,sans-serif; font-size:41px; text-anchor:end;" transform="rotate(0, 941.568, 1273.5)" x="941.568" y="1273.5">DuMond(1948)</text>
</g>
<g clip-path="url(#clip4900)">
<text style="fill:#000000; fill-opacity:1; font-family:Arial,Helvetica Neue,Helvetica,sans-serif; font-size:41px; text-anchor:end;" transform="rotate(0, 941.43, 1328.56)" x="941.43" y="1328.56">Straumanis(1949)</text>
</g>
<g clip-path="url(#clip4900)">
<text style="fill:#000000; fill-opacity:1; font-family:Arial,Helvetica Neue,Helvetica,sans-serif; font-size:41px; text-anchor:end;" transform="rotate(0, 942.394, 1383.61)" x="942.394" y="1383.61">DuMond(1951)</text>
</g>
<g clip-path="url(#clip4900)">
<text style="fill:#000000; fill-opacity:1; font-family:Arial,Helvetica Neue,Helvetica,sans-serif; font-size:41px; text-anchor:end;" transform="rotate(0, 941.335, 1438.67)" x="941.335" y="1438.67">Bearden(1965)</text>
</g>
<g clip-path="url(#clip4900)">
<text style="fill:#000000; fill-opacity:1; font-family:Arial,Helvetica Neue,Helvetica,sans-serif; font-size:41px; text-anchor:end;" transform="rotate(0, 941.339, 1493.73)" x="941.339" y="1493.73">Cohen(1965)</text>
</g>
<g clip-path="url(#clip4900)">
<text style="fill:#000000; fill-opacity:1; font-family:Arial,Helvetica Neue,Helvetica,sans-serif; font-size:41px; text-anchor:end;" transform="rotate(0, 941.297, 1548.79)" x="941.297" y="1548.79">Cohen(1973)</text>
</g>
<g clip-path="url(#clip4900)">
<text style="fill:#000000; fill-opacity:1; font-family:Arial,Helvetica Neue,Helvetica,sans-serif; font-size:41px; text-anchor:end;" transform="rotate(0, 941.38, 1603.84)" x="941.38" y="1603.84">Deslattes(1974)</text>
</g>
<g clip-path="url(#clip4900)">
<text style="fill:#000000; fill-opacity:1; font-family:Arial,Helvetica Neue,Helvetica,sans-serif; font-size:41px; text-anchor:end;" transform="rotate(0, 941.395, 1658.9)" x="941.395" y="1658.9">Deslattes(1987)</text>
</g>
<g clip-path="url(#clip4900)">
<text style="fill:#000000; fill-opacity:1; font-family:Arial,Helvetica Neue,Helvetica,sans-serif; font-size:41px; text-anchor:end;" transform="rotate(0, 941.396, 1713.96)" x="941.396" y="1713.96">Cohen(1987)</text>
</g>
<g clip-path="url(#clip4900)">
<text style="fill:#000000; fill-opacity:1; font-family:Arial,Helvetica Neue,Helvetica,sans-serif; font-size:41px; text-anchor:end;" transform="rotate(0, 941.395, 1769.01)" x="941.395" y="1769.01">Seyfried(1992)</text>
</g>
<g clip-path="url(#clip4900)">
<text style="fill:#000000; fill-opacity:1; font-family:Arial,Helvetica Neue,Helvetica,sans-serif; font-size:41px; text-anchor:end;" transform="rotate(0, 941.397, 1824.07)" x="941.397" y="1824.07">Basile(1994)</text>
</g>
<g clip-path="url(#clip4900)">
<text style="fill:#000000; fill-opacity:1; font-family:Arial,Helvetica Neue,Helvetica,sans-serif; font-size:41px; text-anchor:end;" transform="rotate(0, 941.396, 1879.13)" x="941.396" y="1879.13">De Bievre(1995)</text>
</g>
<g clip-path="url(#clip4900)">
<text style="fill:#000000; fill-opacity:1; font-family:Arial,Helvetica Neue,Helvetica,sans-serif; font-size:41px; text-anchor:end;" transform="rotate(0, 941.404, 1934.19)" x="941.404" y="1934.19">Fujii(1999)</text>
</g>
<g clip-path="url(#clip4900)">
<text style="fill:#000000; fill-opacity:1; font-family:Arial,Helvetica Neue,Helvetica,sans-serif; font-size:41px; text-anchor:end;" transform="rotate(0, 941.396, 1989.24)" x="941.396" y="1989.24">De Bievre(2001)</text>
</g>
</svg>
